<svg width="7" height="12" viewBox="0 0 7 12" xmlns="http://www.w3.org/2000/svg"><path d="M2.02 7.448v-.542c0-.47.102-.877.302-1.223.2-.347.566-.716 1.098-1.106.513-.367.85-.664 1.015-.894.163-.23.245-.486.245-.77 0-.316-.117-.558-.35-.724-.236-.167-.563-.25-.983-.25-.732 0-1.567.24-2.505.718L.044 1.054C1.134.444 2.288.138 3.508.138c1.006 0 1.806.242 2.4.725.592.484.89 1.128.89 1.934 0 .537-.123 1-.367 1.39-.243.392-.707.832-1.39 1.32-.47.347-.766.61-.89.79-.125.182-.188.418-.188.71v.44h-1.94zm-.233 2.505c0-.41.11-.72.33-.93.22-.21.54-.315.96-.315.404 0 .718.107.94.322.222.215.334.522.334.923 0 .385-.112.69-.336.912-.225.222-.537.333-.938.333-.41 0-.727-.11-.952-.326-.225-.217-.337-.524-.337-.92z" fill="#FFF" fill-rule="evenodd"/></svg>